<svg width="642" height="641" viewBox="0 0 642 641" fill="none" xmlns="http://www.w3.org/2000/svg">
<g filter="url(#filter0_d_293_615)">
<path d="M274.5 -715.894C274.5 -434.405 1066.77 664.743 222.94 599.856C-320 558.106 -395 249.092 -395 -32.3962C-395 -313.885 165.703 -715.894 350.26 -715.894C534.816 -715.894 274.5 -997.382 274.5 -715.894Z" fill="white"/>
<path d="M350.26 -715.944C329.53 -715.944 304.059 -710.874 275.172 -701.475C274.761 -706.493 274.55 -711.302 274.55 -715.894C274.55 -786.264 290.82 -821.424 312.317 -834.604C333.81 -847.782 360.558 -839.002 381.557 -821.414C392.054 -812.621 401.111 -801.63 407.349 -790.091C413.587 -778.551 417.006 -766.465 416.232 -755.482C415.459 -744.501 410.496 -734.619 399.964 -727.481C389.431 -720.341 373.324 -715.944 350.26 -715.944ZM275.083 -701.341C277.842 -667.916 289.467 -625.244 306.848 -575.862C326.864 -518.993 354.517 -453.218 385.062 -382.411C392.137 -366.01 399.367 -349.34 406.693 -332.447C462.63 -203.474 524.177 -61.5626 565.11 71.8865C588.257 147.35 604.81 220.106 610.029 286.284C615.249 352.462 609.133 412.059 586.943 461.208C564.754 510.355 526.492 549.059 467.409 573.449C408.325 597.839 328.419 607.917 222.944 599.806C-48.5167 578.932 -202.986 491.245 -289.592 373.602C-376.2 255.957 -394.95 108.345 -394.95 -32.3962C-394.95 -102.753 -359.913 -180.647 -304.466 -257.917C-249.019 -335.185 -173.167 -411.822 -91.5468 -479.665C-9.92639 -547.507 77.4609 -606.553 155.977 -648.638C199.18 -671.795 239.694 -689.815 275.083 -701.341Z" stroke="#A91674" stroke-width="0.1"/>
</g>
<defs>
<filter id="filter0_d_293_615" x="-425" y="-863" width="1066.83" height="1503.61" filterUnits="userSpaceOnUse" color-interpolation-filters="sRGB">
<feFlood flood-opacity="0" result="BackgroundImageFix"/>
<feColorMatrix in="SourceAlpha" type="matrix" values="0 0 0 0 0 0 0 0 0 0 0 0 0 0 0 0 0 0 127 0" result="hardAlpha"/>
<feOffset dy="8"/>
<feGaussianBlur stdDeviation="15"/>
<feComposite in2="hardAlpha" operator="out"/>
<feColorMatrix type="matrix" values="0 0 0 0 0 0 0 0 0 0 0 0 0 0 0 0 0 0 0.05 0"/>
<feBlend mode="normal" in2="BackgroundImageFix" result="effect1_dropShadow_293_615"/>
<feBlend mode="normal" in="SourceGraphic" in2="effect1_dropShadow_293_615" result="shape"/>
</filter>
</defs>
</svg>
