<svg xmlns="http://www.w3.org/2000/svg" width="25" height="24" viewBox="0 0 25 24" fill="none">
  <path d="M22.1699 6.95C21.5299 4.77999 19.7199 2.97 17.5499 2.33C15.8999 1.85 14.7599 1.89 13.9699 2.48C13.0199 3.19 12.9099 4.47 12.9099 5.38V7.87C12.9099 10.33 14.0299 11.58 16.2299 11.58H19.0999C19.9999 11.58 21.2899 11.47 21.9999 10.52C22.6099 9.74 22.6599 8.6 22.1699 6.95Z" fill="white" fill-opacity="0.4"/>
  <path d="M19.4099 13.361C19.1499 13.061 18.7699 12.891 18.3799 12.891H14.7999C13.0399 12.891 11.6099 11.461 11.6099 9.701V6.121C11.6099 5.731 11.4399 5.351 11.1399 5.091C10.8499 4.831 10.4499 4.711 10.0699 4.761C7.7199 5.061 5.5599 6.351 4.1499 8.291C2.7299 10.241 2.2099 12.621 2.6599 15.001C3.3099 18.441 6.0599 21.191 9.5099 21.841C10.0599 21.951 10.6099 22.001 11.1599 22.001C12.9699 22.001 14.7199 21.441 16.2099 20.351C18.1499 18.941 19.4399 16.781 19.7399 14.431C19.7899 14.041 19.6699 13.651 19.4099 13.361Z" fill="white"/>
</svg>