<svg width="24" height="25" viewBox="0 0 24 25" fill="none" xmlns="http://www.w3.org/2000/svg">
<path d="M4.0002 8.3C4.0002 6.61984 4.0002 5.77976 4.32718 5.13803C4.6148 4.57354 5.07374 4.1146 5.63822 3.82698C6.27996 3.5 7.12004 3.5 8.8002 3.5H15.2002C16.8804 3.5 17.7204 3.5 18.3622 3.82698C18.9267 4.1146 19.3856 4.57354 19.6732 5.13803C20.0002 5.77976 20.0002 6.61984 20.0002 8.3V21.5L17.2502 19.5L14.7502 21.5L12.0002 19.5L9.2502 21.5L6.7502 19.5L4.0002 21.5V8.3Z" stroke="#7F7F7F" stroke-width="1.5" stroke-linecap="round" stroke-linejoin="round"/>
<path d="M10.0002 9.5H14.0002M10.0002 11.1667H14.0002M12.8335 15.5L10.0002 12.8333H11.0002C13.2225 12.8333 13.2225 9.5 11.0002 9.5" stroke="#7F7F7F" stroke-linecap="round" stroke-linejoin="round"/>
</svg>
