<svg width="22" height="23" viewBox="0 0 22 23" fill="none" xmlns="http://www.w3.org/2000/svg">
<path d="M11 11.5L1.33178 8.94554C0.709742 11.2999 0.968132 13.8002 2.05847 15.9776C3.14881 18.1549 4.99616 19.8596 7.25395 20.7718L11 11.5ZM11 11.5L11.1047 1.50055C8.88558 1.47731 6.72174 2.19293 4.95402 3.5347C3.1863 4.87647 1.91514 6.76815 1.34075 8.91181L11 11.5ZM21 11.5C21 17.0228 16.5229 21.5 11 21.5C5.47716 21.5 1.00001 17.0228 1.00001 11.5C1.00001 5.97715 5.47716 1.5 11 1.5C16.5229 1.5 21 5.97715 21 11.5Z" stroke="#0D0D0D" stroke-width="1.5" stroke-linecap="round" stroke-linejoin="round"/>
</svg>
